<?xml version="1.0" standalone="no"?>
<!DOCTYPE svg PUBLIC "-//W3C//DTD SVG 20010904//EN"
 "http://www.w3.org/TR/2001/REC-SVG-20010904/DTD/svg10.dtd">
<svg version="1.0" xmlns="http://www.w3.org/2000/svg"
 width="149.000000pt" height="97.000000pt" viewBox="0 0 149.000000 97.000000"
 preserveAspectRatio="xMidYMid meet">

<g transform="translate(0.000000,97.000000) scale(0.100000,-0.100000)"
fill="#000000" stroke="none">
<path d="M660 901 c-101 -15 -206 -52 -287 -102 -62 -38 -28 -30 59 14 112 58
199 79 319 79 116 -1 195 -20 309 -75 104 -50 110 -53 85 -32 -35 29 -164 87
-224 100 -77 18 -194 25 -261 16z"/>
<path d="M212 689 c7 -5 36 -8 63 -8 60 1 50 6 -23 12 -32 2 -48 1 -40 -4z"/>
<path d="M500 690 c13 -9 119 -15 109 -6 -2 2 -31 6 -64 10 -41 4 -55 3 -45
-4z"/>
<path d="M336 668 c-9 -37 -7 -45 13 -51 17 -4 18 -10 11 -43 -4 -22 -11 -56
-14 -76 -6 -32 -11 -38 -32 -38 -25 0 -28 -4 -38 -51 l-6 -27 140 2 c77 0 140
4 140 8 0 5 -32 8 -70 8 -68 0 -70 1 -60 21 10 19 17 20 76 14 44 -5 64 -4 64
4 0 7 -22 11 -60 11 -55 0 -60 2 -60 21 0 21 3 21 90 15 62 -5 90 -4 90 3 0 7
-32 11 -89 11 l-88 0 9 43 c5 23 10 53 11 67 2 24 4 25 70 21 44 -2 67 1 67 8
0 7 -25 11 -66 11 -61 0 -66 1 -61 20 5 19 0 20 -63 20 -62 0 -68 -2 -74 -22z"/>
<path d="M630 678 c0 -7 -3 -23 -6 -35 -5 -17 -2 -23 9 -23 24 0 26 -10 16
-65 -16 -91 -18 -95 -43 -95 -25 0 -36 -17 -36 -55 0 -23 0 -23 135 -22 74 1
135 5 135 9 0 5 -32 8 -70 8 -68 0 -70 1 -58 20 12 19 19 20 76 14 43 -4 62
-3 62 5 0 7 -23 11 -61 11 l-61 0 7 43 c8 45 15 83 20 107 2 8 4 20 4 27 1 9
20 10 71 6 49 -4 70 -3 70 6 0 7 -24 11 -69 11 -64 0 -69 1 -64 20 5 19 0 20
-66 20 -50 0 -71 -4 -71 -12z"/>
<path d="M828 683 c18 -2 45 -2 60 0 15 2 0 4 -33 4 -33 0 -45 -2 -27 -4z"/>
<path d="M920 671 c0 -11 -3 -26 -6 -35 -4 -12 0 -16 16 -16 19 0 21 -4 15
-43 -16 -102 -19 -112 -47 -115 -25 -3 -38 -23 -38 -64 0 -14 16 -16 140 -15
77 1 140 5 140 10 0 4 -31 7 -70 7 -70 0 -77 3 -61 29 7 11 24 12 80 7 48 -5
71 -4 71 3 0 7 -27 11 -70 11 -65 0 -70 2 -70 21 0 21 3 22 80 15 52 -4 80 -3
80 4 0 6 -31 10 -75 10 -41 0 -75 4 -75 10 0 5 4 31 9 57 5 26 12 65 16 86 l6
37 -71 0 c-62 0 -70 -2 -70 -19z"/>
<path d="M1286 682 c-6 -11 -126 -294 -126 -298 0 -2 22 -4 48 -4 42 0 50 3
60 25 10 21 19 25 52 25 36 0 40 -2 40 -25 0 -23 3 -25 51 -25 l52 0 -7 93
c-3 50 -9 120 -12 155 l-6 62 -74 0 c-40 0 -75 -4 -78 -8z m52 -173 c-24 -15
-28 6 -10 51 l17 45 3 -44 c2 -28 -1 -47 -10 -52z"/>
<path d="M185 640 c72 -12 125 -12 125 0 0 6 -35 9 -87 9 -81 -2 -84 -2 -38
-9z"/>
<path d="M1120 639 c64 -11 130 -11 130 1 0 6 -35 9 -87 9 -77 -1 -82 -2 -43
-10z"/>
<path d="M220 589 c64 -11 120 -11 120 1 0 6 -33 9 -82 9 -75 -1 -78 -2 -38
-10z"/>
<path d="M520 589 c64 -11 120 -11 120 1 0 6 -33 9 -82 9 -75 -1 -78 -2 -38
-10z"/>
<path d="M805 589 c56 -11 125 -11 125 1 0 6 -33 10 -82 9 -71 -1 -77 -2 -43
-10z"/>
<path d="M1138 587 c53 -7 76 -7 85 2 8 8 -10 11 -73 10 l-85 -2 73 -10z"/>
<path d="M220 539 c64 -11 110 -11 110 1 0 6 -32 9 -77 9 -72 -1 -74 -2 -33
-10z"/>
<path d="M520 539 c64 -11 110 -11 110 1 0 6 -32 9 -77 9 -72 -1 -74 -2 -33
-10z"/>
<path d="M805 539 c56 -11 115 -11 115 1 0 6 -32 10 -77 9 -69 -1 -73 -2 -38
-10z"/>
<path d="M1100 539 c64 -11 100 -11 100 1 0 6 -30 9 -72 9 -69 -1 -71 -2 -28
-10z"/>
<path d="M210 490 c80 -11 120 -11 120 0 0 6 -35 9 -87 9 -85 -2 -86 -2 -33
-9z"/>
<path d="M751 496 c2 -2 39 -7 82 -11 53 -5 77 -3 77 4 0 7 -30 11 -82 11 -45
0 -79 -2 -77 -4z"/>
<path d="M174 438 c55 -7 82 -6 89 1 8 8 -14 11 -79 10 l-89 -2 79 -9z"/>
<path d="M164 388 c53 -6 83 -5 90 2 7 7 -18 10 -80 9 l-89 -2 79 -9z"/>
<path d="M535 289 c-13 -19 -12 -69 1 -69 7 0 10 8 7 20 -3 12 0 20 6 20 7 0
9 5 6 10 -3 6 -1 10 5 10 6 0 8 5 5 10 -8 13 -22 13 -30 -1z"/>
<path d="M54 255 c6 -19 14 -35 17 -35 3 0 10 16 16 35 6 20 7 35 2 35 -5 0
-9 -8 -9 -17 -1 -17 -1 -17 -14 0 -20 26 -24 21 -12 -18z"/>
<path d="M660 271 c-17 -4 -25 -13 -26 -28 0 -13 5 -23 12 -23 7 0 10 8 7 20
-4 14 0 20 11 20 9 0 16 -8 16 -20 0 -11 4 -20 9 -20 5 0 7 9 4 20 -3 12 0 20
6 20 7 0 9 5 6 10 -7 11 -7 11 -45 1z"/>
<path d="M104 255 c-4 -9 -2 -21 4 -27 16 -16 47 -5 47 17 0 26 -42 34 -51 10z
m36 -10 c0 -8 -4 -15 -10 -15 -5 0 -10 7 -10 15 0 8 5 15 10 15 6 0 10 -7 10
-15z"/>
<path d="M168 245 c3 -19 10 -25 32 -25 24 0 27 3 22 25 -2 14 -8 25 -12 25
-5 0 -6 -9 -3 -20 3 -12 0 -20 -7 -20 -6 0 -14 9 -17 20 -8 29 -21 25 -15 -5z"/>
<path d="M238 245 c2 -14 9 -25 14 -25 5 0 6 5 3 10 -4 6 -1 17 5 25 10 12 9
15 -7 15 -16 0 -19 -5 -15 -25z"/>
<path d="M310 245 c0 -20 5 -25 23 -24 16 1 18 2 5 6 -23 6 -23 30 0 36 13 4
11 5 -5 6 -18 1 -23 -4 -23 -24z"/>
<path d="M367 263 c-11 -10 -8 -43 3 -43 6 0 10 6 8 13 -2 6 2 13 7 14 6 1 9
-5 7 -13 -2 -8 2 -14 8 -14 5 0 10 11 10 25 0 18 -5 25 -18 25 -10 0 -22 -3
-25 -7z"/>
<path d="M424 245 c1 -30 16 -34 16 -5 0 11 5 20 10 20 6 0 10 -9 10 -20 0
-11 5 -20 10 -20 6 0 10 9 10 20 0 11 4 20 9 20 6 0 8 -9 6 -20 -2 -11 0 -20
6 -20 5 0 9 11 9 25 0 23 -4 25 -44 25 -41 0 -44 -2 -42 -25z"/>
<path d="M577 264 c-10 -11 -9 -44 2 -44 5 0 7 10 4 21 -4 16 -2 20 8 17 8 -3
13 -12 11 -22 -2 -9 2 -16 8 -16 17 0 7 44 -10 48 -9 1 -19 0 -23 -4z"/>
<path d="M750 245 c0 -14 5 -25 10 -25 6 0 10 11 10 25 0 14 -4 25 -10 25 -5
0 -10 -11 -10 -25z"/>
<path d="M780 255 c0 -8 7 -15 16 -15 8 0 12 -4 9 -10 -3 -5 -1 -10 4 -10 6 0
11 7 11 15 0 8 -6 15 -12 15 -9 0 -8 4 2 10 12 8 11 10 -7 10 -14 0 -23 -6
-23 -15z"/>
<path d="M867 263 c-11 -10 -8 -43 3 -43 6 0 10 6 8 13 -2 6 2 13 7 14 6 1 9
-5 7 -13 -2 -8 2 -14 8 -14 5 0 10 11 10 25 0 18 -5 25 -18 25 -10 0 -22 -3
-25 -7z"/>
<path d="M922 248 c2 -17 11 -24 31 -26 23 -3 27 0 27 22 0 14 -4 26 -10 26
-5 0 -10 -9 -10 -20 0 -11 -4 -20 -10 -20 -5 0 -10 9 -10 20 0 11 -5 20 -11
20 -6 0 -9 -10 -7 -22z"/>
<path d="M990 245 c0 -15 6 -25 15 -25 9 0 12 6 8 16 -3 9 0 20 8 25 11 6 8 9
-8 9 -18 0 -23 -6 -23 -25z"/>
<path d="M1065 245 c0 -14 3 -25 8 -25 4 0 7 9 7 20 0 11 5 20 10 20 6 0 10
-9 10 -20 0 -11 5 -20 10 -20 6 0 10 9 10 20 0 11 4 20 9 20 6 0 8 -9 6 -20
-2 -12 2 -20 9 -20 9 0 12 9 8 25 -4 22 -10 25 -46 25 -37 0 -41 -2 -41 -25z"/>
<path d="M1168 245 c2 -14 8 -25 12 -25 4 0 5 11 2 25 -2 14 -8 25 -12 25 -4
0 -5 -11 -2 -25z"/>
<path d="M1200 255 c0 -8 6 -15 13 -15 8 0 7 -4 -3 -10 -12 -8 -11 -10 8 -10
26 0 31 30 5 31 -15 0 -15 2 2 9 19 8 19 9 -2 9 -14 1 -23 -5 -23 -14z"/>
<path d="M1250 260 c0 -6 8 -14 17 -17 15 -6 15 -7 -3 -14 -18 -7 -17 -8 3 -8
27 -1 40 17 18 25 -13 6 -14 8 -3 15 9 6 7 9 -9 9 -13 0 -23 -5 -23 -10z"/>
<path d="M1308 245 c2 -14 8 -25 13 -25 10 0 11 12 3 34 -10 25 -22 19 -16 -9z"/>
<path d="M1347 263 c-4 -3 -7 -15 -7 -25 0 -13 7 -18 25 -18 20 0 25 5 25 25
0 18 -5 25 -18 25 -10 0 -22 -3 -25 -7z m23 -19 c0 -8 -5 -12 -10 -9 -6 4 -8
11 -5 16 9 14 15 11 15 -7z"/>
<path d="M1400 246 c0 -16 6 -26 14 -26 9 0 12 7 9 20 -3 11 0 20 6 20 6 0 11
-9 11 -20 0 -11 5 -20 11 -20 6 0 9 10 7 23 -2 16 -11 23 -30 25 -24 3 -28 0
-28 -22z"/>
<path d="M355 125 c34 -28 157 -83 225 -101 99 -26 263 -22 365 8 73 21 222
94 213 104 -2 2 -43 -16 -90 -40 -112 -56 -199 -77 -318 -78 -116 0 -197 19
-310 75 -100 49 -112 54 -85 32z"/>
</g>
</svg>
